<?xml version="1.0" encoding="utf-8"?>
<!-- Generator: Adobe Illustrator 22.0.0, SVG Export Plug-In . SVG Version: 6.00 Build 0)  -->
<svg version="1.1" id="Layer_1" xmlns="http://www.w3.org/2000/svg" xmlns:xlink="http://www.w3.org/1999/xlink" x="0px" y="0px"
	 viewBox="0 0 628 185" style="enable-background:new 0 0 628 185;" xml:space="preserve">
<style type="text/css">
	.st0{fill:#FFFFFF;}
	.st1{fill:#606060;}
</style>
<g>
	<path class="st0" d="M323.6,6.8c-48.2,0-87.6,39.3-87.5,87.6c0,48.4,39.3,87.3,87.1,87.6c47.5,0.3,87.9-38,88.1-87.6
		C411.1,45,370.9,6.8,323.6,6.8z M377.8,85.8c-2,2.1-4.3,3.1-7.2,2.4c-0.3-0.1-0.6,0-1.1,0c0,0.7-0.1,1.2-0.1,1.8
		c0,15.4,0,30.8,0,46.2c0,5.1,0.1,10.3,0.1,15.4c0,0.8,0,1.6-0.1,2.4c-0.2,2.1-1.2,3.1-3.3,3.2c-0.8,0.1-1.6,0.1-2.4,0.1
		c-27.2,0-54.3,0-81.5,0c-0.6,0-1.3,0-1.9,0c-2-0.2-2.8-1.1-3-3c0-0.6,0-1.2,0-1.8V88c-0.4,0-0.7-0.1-0.9-0.1
		c-2.7,0.5-5.1-0.2-7.2-1.9c-0.9-0.7-1.7-1.6-2.5-2.5c-1.5-1.7-2.9-3.5-4.4-5.2c-2.3-2.6-4.4-5.2-6.1-8.1c-1.7-2.9-1.6-4.6,0.6-7.1
		c6-6.8,12.1-13.7,18.1-20.5c2.8-3.2,6.2-5.4,10.2-6.6c2.8-0.8,5.6-1.5,8.5-2.1c3.3-0.7,6.7-1.4,10-1.9c2.9-0.5,5.9-0.3,8.8,0.3
		c4.7,0.9,9.5,1.3,14.3,1c2.8-0.2,5.6-0.6,8.4-0.9c4.6-0.6,9.3-0.5,13.8,0.7c3.9,1,7.7,2,11.6,3c4.7,1.2,8.7,3.7,11.9,7.4
		c6,6.8,12,13.5,17.9,20.3c2.4,2.7,2.4,3.9,0.3,6.8C386.7,75.7,382.4,80.8,377.8,85.8z"/>
	<path class="st0" d="M65.1,100c0.1,3.5-0.9,6.6-2.7,9.6c-4.4,7.6-11.1,11.8-19.8,13c-5.3,0.8-10.5,0.5-15.7-0.7
		c-8.3-2-14.1-7-18-14.4c-2.8-5.1-4.2-10.6-4.5-16.4c-0.1-1.1-0.1-2.2-0.2-3.3c0-6.5,1-12.7,4-18.5c4.6-8.9,11.9-14.3,21.7-16.3
		c6.7-1.3,13.4-0.9,19.7,1.8c5.3,2.2,9.8,5.5,12.8,10.5c1.3,2.1,2.1,4.3,2.4,6.8c0.4,3.3-1.8,6.3-5,6.7c-2.1,0.3-4-0.2-5.3-2.1
		c-0.8-1.1-1.4-2.3-2.1-3.4c-1-1.6-2-3.2-3.1-4.7c-3.5-4.3-8.2-5.9-13.5-5.5c-8.4,0.6-13.3,5.5-15.9,13.1c-1,2.8-1.4,5.7-1.6,8.7
		c-0.2,4.6-0.2,9.3,1.2,13.8c0.5,1.7,1.2,3.4,2,4.9c2.7,5,7,7.7,12.7,8.4c2.5,0.3,4.9,0.2,7.3-0.5c4.3-1.1,7.5-3.7,9.7-7.5
		c0.7-1.3,1.3-2.7,1.9-4c0.5-1,0.9-2.1,1.4-3.1c0.9-1.8,2.4-2.6,4.4-2.6c1.6,0,3,0.3,4.2,1.4C64.4,97,65.1,98.4,65.1,100z"/>
	<path class="st0" d="M219,116.5c-0.3-1.2-0.6-2.3-1-3.4c-0.8-2.9-1.3-5.8-1.2-8.8c0.1-4.5,0.1-9.1,0.1-13.6c0-2.1-0.2-4.1-0.5-6.2
		c-0.8-5.7-3.7-9.8-9.3-11.6c-0.9-0.3-1.8-0.5-2.7-0.7c-5.5-1.1-11.1-1.2-16.6-0.3c-3.4,0.6-6.7,1.8-9.5,3.8c-2.8,2-4.7,4.6-5.3,8
		c-0.3,1.8-0.1,3.6,1.5,4.9c1.7,1.5,3.7,1.6,5.7,1c0.5-0.1,0.9-0.6,1.3-1c0.7-0.9,1.3-1.8,1.8-2.7c2.1-3.4,4.9-5.5,8.9-5.8
		c2.6-0.2,5.1-0.3,7.6,0.5c1.5,0.5,2.7,1.3,3.4,2.7c1.1,2.1,1.5,4.3,1.4,6.7c-0.6,0.2-1.2,0.4-1.8,0.6c-5.6,1.3-11.1,2.6-16.7,3.9
		c-2.5,0.6-5,1-7.4,2.1c-6.7,3.1-9.4,9.6-7.6,16.2c1.3,4.8,4.6,7.9,9.2,9.5c4,1.4,8.2,1.3,12.3,0.5c4.2-0.8,7.8-2.9,11.3-5.3
		c0.5-0.4,1-0.7,1.6-1.1c0.4,0.6,0.7,1.1,1.1,1.6c1.1,1.4,2.2,2.8,3.4,4.1c1.2,1.3,2.8,1.6,4.5,1.4
		C217.6,122.5,219.7,119.6,219,116.5z M203.9,106.3c-0.6,2.5-2,4.5-4.1,6c-3.3,2.3-6.9,3.2-10.8,2.5c-4.1-0.7-6.7-4.6-5.8-8.5
		c0.3-1.2,0.9-2.1,1.8-2.8c1.3-1.1,2.8-1.8,4.5-2.2c4.9-1.2,9.8-2.4,14.6-3.5c0.1,0,0.2,0,0.4,0.1c0,0.2,0.2,0.4,0.2,0.6
		C204.6,101,204.5,103.7,203.9,106.3z"/>
	<path class="st0" d="M129,100.2c7.6,0,15.3,0,22.9,0c0.9,0,1.8,0.1,2.7-0.1c1.5-0.2,2.9-0.5,4.3-0.9c1.6-0.5,2.7-1.7,3.1-3.3
		c0.2-1.1,0.4-2.2,0.4-3.4c-0.1-9-5.8-16.8-14.3-19.8c-4.9-1.7-9.9-1.9-14.9-0.9c-8.1,1.6-14,6-17,13.8c-2.8,7.3-2.9,14.7-0.4,22
		c2.6,7.6,7.9,12.3,15.6,14.4c3.6,1,7.2,1,10.9,0.9c4.3-0.2,8.4-1.3,12.1-3.5c2.8-1.7,5.2-3.9,6.6-7c0.5-1,0.8-2.1,0.6-3.3
		c-0.2-1.6-1.2-3-2.8-3.3c-1.8-0.3-3.5-0.3-4.9,1.3c-1,1-2.1,2-3.2,2.9c-1.2,1-2.4,1.9-3.7,2.7c-3,1.9-6.3,2.4-9.7,1.8
		c-5.2-0.9-8.3-4.3-9.8-9.2c-0.5-1.6-0.8-3.2-0.6-5.1C127.7,100.3,128.3,100.2,129,100.2z M128.9,85.8c2.3-4.3,6-6.1,10.8-5.8
		c4.5,0.3,7.5,2.7,9.2,6.8c0.8,2,1.3,4,1.3,6.3H127C127.1,90.4,127.7,88,128.9,85.8z"/>
	<path class="st0" d="M484.3,100.2c7.8,0,15.5,0,23.2,0c1.8,0,3.6-0.2,5.3-0.6c3.4-0.8,4.6-2.5,4.8-6c0-0.3,0-0.7,0-1
		c0-8.6-5.5-16.5-13.6-19.6c-5.2-2-10.6-2.2-16-1.1c-8.2,1.7-13.9,6.3-16.8,14.2c-2.6,7-2.7,14.1-0.4,21.2c2.5,7.8,8,12.7,15.9,14.8
		c3.6,0.9,7.3,1,11,0.8c4.5-0.2,8.7-1.5,12.5-4c2.6-1.7,4.7-3.8,5.9-6.7c0.5-1.1,0.7-2.2,0.5-3.3c-0.2-1.6-1.3-2.8-2.9-3.1
		c-1.8-0.3-3.4,0-4.9,1.4c-2,1.9-4.1,3.7-6.4,5.3c-3,2.1-6.4,2.6-9.9,2c-6.4-1.1-11.1-7.5-10.4-14.3
		C483,100.3,483.7,100.2,484.3,100.2z M482.2,93.1c0.4-4.1,1.5-7.8,4.6-10.6c4.3-3.8,13.1-3.5,16.6,2.8c1.3,2.4,2,5,2,7.9H482.2z"/>
	<path class="st0" d="M541.1,100.2c7.8,0,15.5,0,23.3,0c1.5,0,3-0.1,4.5-0.4c3.9-0.7,5.5-2.5,5.7-6.5c0-0.3,0-0.5,0-0.7
		c0-8.6-5.5-16.4-13.6-19.6c-5.1-1.9-10.3-2.2-15.6-1.2C537,73.4,531.2,78,528.2,86c-2.5,6.7-2.6,13.6-0.6,20.5
		c2.3,8,7.6,13.1,15.5,15.4c3.8,1.1,7.8,1.2,11.7,1c4.5-0.2,8.7-1.5,12.5-4c2.5-1.6,4.6-3.7,5.8-6.5c0.5-1.1,0.7-2.2,0.5-3.3
		c-0.2-1.7-1.3-2.9-3-3.2c-1.8-0.3-3.3,0-4.8,1.4c-2,1.9-4.1,3.7-6.4,5.3c-3.4,2.3-7.2,2.9-11.2,1.8c-4.9-1.3-7.6-4.9-8.8-9.7
		c-0.4-1.4-0.6-2.8-0.5-4.4C539.8,100.3,540.4,100.2,541.1,100.2z M539.2,92c0.3-2.6,1.1-5.1,2.5-7.3c4.3-6.6,15.2-6.1,18.7,1
		c1.2,2.3,1.8,4.8,1.8,7.5h-23.1C539.2,92.7,539.2,92.3,539.2,92z"/>
	<path class="st0" d="M470.2,59.4c0,2.5-1.6,4.5-4.1,5.1c-1,0.2-2,0.3-2.9,0.3c-4.4,0-8.9,0-13.3,0H448V67c0,15.7,0,31.4,0,47.1
		c0,1.5-0.2,2.9-0.5,4.4c-0.6,2.6-3,4.6-6.1,4.6c-3.2,0-5.7-1.8-6.4-4.5c-0.4-1.5-0.6-3.2-0.6-4.8c0-15.5,0-31,0-46.5v-2.4h-1.8
		c-4.5,0-9,0-13.5,0c-1.2,0-2.4-0.2-3.5-0.6c-2.1-0.7-3.3-2.4-3.4-4.7c-0.1-2.6,0.9-4.4,3.1-5.2c1-0.4,2.2-0.6,3.3-0.6
		c3-0.1,6.1,0,9.2,0c11.8,0,23.5,0,35.2,0c1.1,0,2.2,0.1,3.2,0.3C468.9,54.7,470.3,56.7,470.2,59.4z"/>
	<path class="st0" d="M626.2,108.7c-0.8,6.2-4.3,10.2-10,12.4c-3.8,1.5-7.8,1.9-12,1.8c-4.7,0.1-9.2-0.6-13.5-2.8
		c-2.7-1.4-5-3.2-6.5-5.9c-0.9-1.6-1.4-3.4-1.3-5.2c0.1-1.9,1.3-3.7,3.2-4.3c2-0.7,3.9-0.6,5.4,1.1c0.6,0.7,1,1.4,1.5,2.2
		c0.7,1,1.4,2.1,2.2,3c2,2.3,4.5,3.4,7.5,3.8c2.1,0.2,4.3,0.3,6.3-0.4c1.1-0.4,2.2-0.9,3.1-1.6c3.4-2.3,2.1-6.9-0.3-8.3
		c-1.2-0.7-2.4-1.3-3.7-1.7c-3.1-1-6.3-1.7-9.4-2.7c-2.2-0.7-4.4-1.4-6.5-2.4c-1.5-0.7-3-1.6-4.3-2.6c-5.3-4-5.3-10.3-3.3-14.5
		c1.8-3.8,5-6.2,8.8-7.7c2.4-0.9,4.9-1.4,7.5-1.5c4.4-0.2,8.8,0.1,13,1.5c2.4,0.8,4.7,2,6.7,3.7c1.3,1.1,2.3,2.5,2.9,4.1
		c0.9,2.5,0.3,4.8-1.5,6.1c-1.9,1.4-5.1,1.4-6.9-0.1c-1-0.9-1.9-2-2.9-3c-0.6-0.6-1.1-1.3-1.7-1.9c-1.8-1.7-4-2.5-6.4-2.6
		c-1.6-0.1-3.3-0.1-4.8,0.6c-1,0.5-2.1,1-2.9,1.7c-1.9,1.7-1.9,4.4,0.1,6.1c1.3,1.1,2.8,1.8,4.3,2.2c3.3,0.9,6.6,1.7,9.8,2.6
		c2.7,0.7,5.4,1.6,7.9,2.9c1.2,0.6,2.3,1.3,3.4,2.2C625.5,100.4,626.8,104.2,626.2,108.7z"/>
	<path class="st0" d="M110.9,81.5c-1.3,2-3.3,2.8-5.6,2.2c-1.9-0.5-3.7-1-5.6-1.3c-3.7-0.6-6.4,1-8,4.4c-1,2.1-1.5,4.4-1.7,6.7
		c-0.3,3.7-0.5,7.4-0.6,11.1c-0.1,3.7,0,7.3,0,11c0,0.9-0.1,1.9-0.3,2.8c-0.5,2.6-2.8,4.9-6.2,4.8c-2.3-0.1-5-1.4-5.8-5
		c-0.2-1-0.3-2-0.3-2.9c0-11.7,0-23.4,0-35.1c0-1.5,0.2-3.1,0.6-4.5c1-3.7,5.3-5.3,8.6-3.4c0.7,0.4,1.4,1.2,1.8,1.9
		c0.5,1,0.7,2.1,1,3.2c0.1,0.5,0.2,1,0.3,1.9c0.5-0.7,0.7-1.1,1-1.5c1-1.3,2-2.6,3.1-3.8c1.6-1.6,3.6-2.3,5.9-2.5
		c3.1-0.2,6,0.4,8.7,1.9c1,0.5,1.9,1.2,2.7,2.1C111.9,77,112,79.7,110.9,81.5z"/>
	<path class="st1" d="M390.4,63.5c-6-6.8-12-13.5-17.9-20.3c-3.2-3.6-7.2-6.1-11.9-7.4c-3.9-1-7.7-2-11.6-3
		c-4.5-1.1-9.2-1.3-13.8-0.7c-2.8,0.4-5.6,0.8-8.4,0.9c-4.8,0.3-9.6-0.1-14.3-1c-2.9-0.6-5.9-0.7-8.8-0.3c-3.3,0.5-6.7,1.2-10,1.9
		c-2.8,0.6-5.7,1.3-8.5,2.1c-4,1.2-7.4,3.5-10.2,6.6c-6,6.8-12.1,13.7-18.1,20.5c-2.2,2.5-2.4,4.2-0.6,7.1c1.8,2.9,3.9,5.6,6.1,8.1
		c1.5,1.7,2.9,3.5,4.4,5.2c0.8,0.9,1.6,1.8,2.5,2.5c2.1,1.7,4.5,2.4,7.2,1.9c0.3,0,0.5,0,0.9,0.1v64.3c0,0.6,0,1.2,0,1.8
		c0.1,2,1,2.8,3,3c0.6,0.1,1.3,0,1.9,0c27.2,0,54.3,0,81.5,0c0.8,0,1.6,0,2.4-0.1c2.1-0.2,3.1-1.1,3.3-3.2c0.1-0.8,0.1-1.6,0.1-2.4
		c0-5.1-0.1-10.3-0.1-15.4c0-15.4,0-30.8,0-46.2c0-0.5,0.1-1.1,0.1-1.8c0.5,0,0.8-0.1,1.1,0c2.9,0.7,5.2-0.3,7.2-2.4
		c4.5-4.9,8.9-10.1,12.9-15.5C392.8,67.4,392.7,66.2,390.4,63.5z M338.3,38.1c-0.3,6.2-7.9,12.3-15,12.3c-7.3,0-14.2-5.9-14.6-12.6
		C318.5,39.8,328.4,39.7,338.3,38.1z M282.7,64.9c-0.4,4.8-1.5,9.4-3.1,13.9c-0.5,1.3-1.3,2.4-2.7,2.9c-1.9,0.7-3.4,0-4.8-1.4
		c-3.1-3.4-6.2-6.7-9.3-10.1c-0.6-0.7-1.2-1.5-1.9-2.5c6.4-7.3,13.1-14.9,20-22.7c0.2,0.9,0.3,1.5,0.5,2.1
		C282.8,53,283.2,58.9,282.7,64.9z M363.4,149.1v1.8h-79.9v-1.7c0-20.8,0-41.6,0-62.3c0-1.4,0.3-2.7,0.9-4c3.9-8.8,5.2-18,4.4-27.5
		c-0.4-4.1-1.2-8.1-1.8-12.1c-0.1-0.5-0.1-1-0.2-1.6c5.2-1.1,10.2-2.3,15.5-3.4c0.2,0.6,0.4,1.1,0.5,1.6c1.4,4,3.3,7.7,6.4,10.7
		c4.6,4.4,10.1,6.3,16.5,5.8c3.3-0.3,6.3-1.6,9-3.5c4.6-3.1,7.8-7.3,9.7-12.6c0.2-0.4,0.3-0.8,0.4-1.3c0.2-0.5,0.6-0.8,1.1-0.7
		c4.7,1.2,9.4,2.5,14.1,3.7c0,0,0.1,0.1,0.3,0.2c-0.2,0.9-0.4,2-0.6,3.1c-1.3,5.8-1.9,11.7-1.7,17.6c0.3,7,1.8,13.7,4.7,20
		c0.5,1.2,0.8,2.4,0.8,3.7C363.3,107.5,363.4,128.3,363.4,149.1z M384.7,68.5c-3.5,4.2-7.1,8.3-10.6,12.5c-0.9,1-1.8,1.4-3.1,1.1
		c-1.9-0.4-3.2-1.6-3.8-3.4c-0.8-2.6-1.6-5.2-2.3-7.8c-1.5-6.7-1.3-13.4-0.2-20.1c0.3-1.8,0.6-3.6,0.9-5.3c0.1-0.1,0.3-0.1,0.4-0.2
		c6.5,7.3,13,14.6,19.5,22C385.3,67.7,385,68.1,384.7,68.5z"/>
	<path class="st0" d="M363.4,86.8c0,20.8,0,41.5,0,62.3v1.8h-79.9v-1.7c0-20.8,0-41.6,0-62.3c0-1.4,0.3-2.7,0.9-4
		c3.9-8.8,5.2-18,4.4-27.5c-0.4-4.1-1.2-8.1-1.8-12.1c-0.1-0.5-0.1-1-0.2-1.6c5.2-1.1,10.2-2.3,15.5-3.4c0.2,0.6,0.4,1.1,0.5,1.6
		c1.4,4,3.3,7.7,6.4,10.7c4.6,4.4,10.1,6.3,16.5,5.8c3.3-0.3,6.3-1.6,9-3.5c4.6-3.1,7.8-7.3,9.7-12.6c0.2-0.4,0.3-0.8,0.4-1.3
		c0.2-0.5,0.6-0.8,1.1-0.7c4.7,1.2,9.4,2.5,14.1,3.7c0,0,0.1,0.1,0.3,0.2c-0.2,0.9-0.4,2-0.6,3.1c-1.3,5.8-1.9,11.7-1.7,17.6
		c0.3,7,1.8,13.7,4.7,20C363.1,84.3,363.4,85.5,363.4,86.8z"/>
	<path class="st0" d="M282.7,64.9c-0.4,4.8-1.5,9.4-3.1,13.9c-0.5,1.3-1.3,2.4-2.7,2.9c-1.9,0.7-3.4,0-4.8-1.4
		c-3.1-3.4-6.2-6.7-9.3-10.1c-0.6-0.7-1.2-1.5-1.9-2.5c6.4-7.3,13.1-14.9,20-22.7c0.2,0.9,0.3,1.5,0.5,2.1
		C282.8,53,283.2,58.9,282.7,64.9z"/>
	<path class="st0" d="M385.6,67.3c-0.3,0.4-0.6,0.8-0.9,1.2c-3.5,4.2-7.1,8.3-10.6,12.5c-0.9,1-1.8,1.4-3.1,1.1
		c-1.9-0.4-3.2-1.6-3.8-3.4c-0.8-2.6-1.6-5.2-2.3-7.8c-1.5-6.7-1.3-13.4-0.2-20.1c0.3-1.8,0.6-3.6,0.9-5.3c0.1-0.1,0.3-0.1,0.4-0.2
		C372.5,52.6,379,59.9,385.6,67.3z"/>
	<path class="st0" d="M338.3,38.1c-0.3,6.2-7.9,12.3-15,12.3c-7.3,0-14.2-5.9-14.6-12.6C318.5,39.8,328.4,39.7,338.3,38.1z"/>
</g>
</svg>
